HIERARCHY
ROOT Hips
{
  OFFSET 0.0 0.0 0.0
  CHANNELS 6 XPOSITION YPOSITION ZPOSITION ZROTATION XROTATION YROTATION 
  JOINT RightUpLeg
  {
    OFFSET -0.089458038 -0.086670642 0.001016508
    CHANNELS 3 ZROTATION XROTATION YROTATION 
    JOINT RightLeg
    {
      OFFSET 1.524e-006 -0.44256706 0.04075049
      CHANNELS 3 ZROTATION XROTATION YROTATION 
      JOINT RightFoot
      {
        OFFSET 0.001562862 -0.419119812 -0.041630854
        CHANNELS 3 ZROTATION XROTATION YROTATION 
        End Site
        {
          OFFSET 7.5692e-005 -0.04415155 0.084991702
        }
      }
    }
  }
  JOINT Spine
  {
    OFFSET 0.0 0.11890502 0.0
    CHANNELS 3 ZROTATION XROTATION YROTATION 
    JOINT Spine1
    {
      OFFSET 0.0 0.256575052 0.001270508
      CHANNELS 3 ZROTATION XROTATION YROTATION 
      End Site
      {
        OFFSET -0.002899918 0.215084406 0.0252476
      }
      JOINT RightArm
      {
        OFFSET -0.16272758 -0.05365633 0.001021842
        CHANNELS 3 ZROTATION XROTATION YROTATION 
        JOINT RightForeArm
        {
          OFFSET -0.263648698 -0.000263906 -0.014099794
          CHANNELS 3 ZROTATION XROTATION YROTATION 
          End Site
          {
            OFFSET -0.220319092 0.001914652 0.010174732
          }
        }
      }
      JOINT LeftArm
      {
        OFFSET 0.16272758 -0.05365633 0.001020826
        CHANNELS 3 ZROTATION XROTATION YROTATION 
        JOINT LeftForeArm
        {
          OFFSET 0.26260552 -0.000263144 -0.01410081
          CHANNELS 3 ZROTATION XROTATION YROTATION 
          End Site
          {
            OFFSET 0.220897958 0.001915922 0.01017524
          }
        }
      }
    }
  }
  JOINT LeftUpLeg
  {
    OFFSET 0.089458038 -0.086670642 0.001016508
    CHANNELS 3 ZROTATION XROTATION YROTATION 
    JOINT LeftLeg
    {
      OFFSET -3.048e-006 -0.442569346 0.040725598
      CHANNELS 3 ZROTATION XROTATION YROTATION 
      JOINT LeftFoot
      {
        OFFSET -0.002532888 -0.41911778 -0.041605708
        CHANNELS 3 ZROTATION XROTATION YROTATION 
        End Site
        {
          OFFSET -0.00040005 -0.044151042 0.084991194
        }
      }
    }
  }
}
MOTION
Frames: 6
Frame Time: 0.033333
1.13100104 0.987687639769 2.11799424 0.362218512023 2.23052100343 177.298555909 2.97251390816 1.11872810338 -1.00449148196 -0.900756169675 4.17420309002 -7.05119915052 -3.15378478085 -30.3897621647 0.25898345773 -0.929955975428 1.99859680752 0.101962024425 5.11578778268 0.459349858477 -0.846627187306 77.2646025328 -13.3274697972 9.05123947583 11.5694900954 27.458444756 -4.08426443969 -84.2077493713 -12.9775472532 -14.622495862 -16.7424414388 50.4777412496 7.9469643729 0.0160523986328 1.35401371286 1.17832908113 -0.0404435777881 5.55777444651 0.517733888616 3.32689229683 -31.5388663605 -0.197117138353 
1.13036604 0.987573339769 2.11799424 0.620082032172 2.58735399133 177.408153125 3.20148810268 1.64887596753 -0.944791253027 -0.911923102081 3.91728637817 -7.24331316196 -3.07770543812 -30.3009731206 0.252494164369 -0.515083775218 2.50229978003 0.0248236705355 4.99291267951 0.326158341537 -0.915614819327 77.105923578 -13.0295019409 8.9411112132 11.6258365948 27.3753555047 -3.89167914519 -84.2393389962 -12.9184908763 -14.5894121332 -16.7661404877 50.4178678113 7.93906099025 0.248148589912 1.59247141159 1.3294135059 -0.0417333162725 5.86784070228 0.258554756638 3.34143590401 -31.7307605252 -0.198817588652 
1.129792 0.987575879769 2.11799424 0.568361812065 2.56654325871 177.492383017 3.09342810671 1.59754709592 -1.01959633859 -0.879400889543 3.97506422902 -7.23900758146 -3.0152243617 -30.3445838785 0.247971618643 -0.79169624468 2.3810999942 -0.0049042342391 5.43259756959 0.457626569733 -1.02623272114 76.8180994064 -12.7829773619 8.8851975771 11.7186947241 27.3575884752 -3.77074765773 -84.3971914981 -12.703134158 -14.5404396768 -16.8294409734 50.166810548 7.90690445964 0.13667511352 1.5830323036 1.23507141127 0.00313207216477 5.81373365122 0.275115083889 3.34184230026 -31.7046623724 -0.198761613117 
1.12909858 0.987573339769 2.11805266 0.64476868371 2.53562662087 177.520373133 3.11505568727 1.60024171227 -1.02960160523 -0.841381495302 3.89904977308 -7.25277724283 -2.99026642359 -30.3066865738 0.245790760585 -0.942985628487 2.33480006281 0.00210174475689 5.86636068566 0.508506356408 -1.09964327418 76.5946224469 -12.6899450628 8.8791298078 11.8167600189 27.1589580363 -3.78863378873 -84.560965774 -12.4181624442 -14.4733877098 -16.9008642615 49.7560907827 7.85596405504 0.159874397985 1.49986247746 1.21571657615 0.0428062629519 5.90623959891 0.260382205767 3.35652678009 -31.7516609041 -0.199097653088 
1.12837214 0.987504759769 2.11813902 0.765021527846 2.42759928174 177.451415543 3.20331859337 1.48969168546 -0.958423990446 -0.843113908752 3.87238129947 -7.25064195494 -2.93434403631 -30.2660947596 0.241173579387 -0.785093319383 2.33299988108 0.00720597297134 5.78533244399 0.425924273381 -1.08042984532 76.5655395014 -12.5176441494 8.80917501032 11.8890071986 26.7553826489 -3.74313491046 -84.5433643766 -12.2092833065 -14.390371883 -16.9501406613 49.3185898456 7.80340318805 0.26567848386 1.2956772806 1.27882699047 0.015770556613 6.09203867358 0.258459614237 3.37331815983 -31.8430590805 -0.200118672988 
1.1276584 0.987392999769 2.11826856 0.85500793614 2.28053890561 177.337884138 3.28202691861 1.28585931055 -0.847813505788 -0.892202211513 3.93730480885 -7.23446550566 -2.85719662275 -30.2623074197 0.235143829691 -0.386422354564 2.22939914486 -0.0508384787045 5.23587403423 0.484118685729 -1.05013752946 76.7407611744 -12.3225235741 8.82316750661 11.8927202602 26.601396034 -3.64588283508 -84.4002719134 -12.1433472216 -14.3672841361 -16.9637071245 49.025496183 7.76916686484 0.37403428572 1.06548859307 1.38533962843 -0.0803080702603 6.2469328498 0.266582923636 3.39909657442 -31.9188571048 -0.201814987821 
